<svg width="234" height="156" viewBox="0 0 234 156" fill="none" xmlns="http://www.w3.org/2000/svg">
<g clip-path="url(#clip0)">
<path fill-rule="evenodd" clip-rule="evenodd" d="M156.169 73.0697V76.612H153.737C152.558 76.612 151.576 76.6967 150.788 76.8699C150.005 77.0424 149.297 77.3245 148.675 77.7143C147.491 78.4559 146.893 79.3694 146.893 80.4566C146.893 81.4784 147.463 82.3568 148.603 83.0929C149.274 83.5261 150.018 83.8268 150.836 84.0032C151.654 84.1802 152.714 84.2684 154.019 84.2684H156.168V87.8111H152.924C150.006 87.8111 147.61 87.474 145.745 86.7861C143.391 85.9189 141.74 84.6623 140.772 83.0258C140.285 82.1992 140.032 81.3529 140.032 80.4902C140.032 79.3579 140.444 78.26 141.266 77.1942C141.894 76.3804 142.708 75.6663 143.734 75.056C145.223 74.1694 147.002 73.5946 149.06 73.3163C150.27 73.1521 151.642 73.0693 153.171 73.0693H156.168L156.169 73.0697Z" fill="#61BF1A"/>
<path fill-rule="evenodd" clip-rule="evenodd" d="M162.906 68.0501V76.5659L162.955 76.7362C165.161 77.0206 167.544 76.4758 168.647 74.4885C169.22 73.6552 169.355 73.0689 169.36 73.0689H174.235C175.096 75.5953 172.92 77.8168 170.738 78.6897C174.248 81.0061 174.7 83.5283 174.555 87.811H168.765H168.761C168.851 84.3798 168.308 80.3844 162.897 80.7109L162.906 87.811H156.83V68.0498H162.906L162.906 68.0501Z" fill="#61BF1A"/>
<path fill-rule="evenodd" clip-rule="evenodd" d="M83.7923 87.9489H94.9143L95.8 87.9231C99.497 87.8148 101.973 84.9104 102.003 81.7422C102.035 78.2097 98.7944 76.0291 95.0667 76.0291H88.7725H88.4667C87.4587 76.0291 86.782 75.1719 86.7251 74.315C86.6596 73.3283 87.4587 72.289 88.6194 72.289H100.964V68.0814H88.4057C83.6089 68.0814 81.5632 70.7569 81.4699 73.9769C81.3794 77.1199 83.9448 80.2099 87.6421 80.2099H94.4862L95.2498 80.2616C96.1655 80.3242 96.7544 81.0403 96.8081 81.8199C96.8761 82.8068 95.8917 83.7161 94.7306 83.7161L81.0868 83.7708L81.1785 68.0549L72.7889 68.051C70.1616 68.0108 68.7912 69.609 67.8132 71.8372L59.4204 87.8981L59.8991 87.9234L66.1103 87.8687C68.3037 83.3193 70.4968 78.7702 72.6905 74.221C73.526 72.7692 73.995 72.5535 75.5143 72.719L75.5108 87.9496H83.792L83.7923 87.9489Z" fill="#61BF1A"/>
<path fill-rule="evenodd" clip-rule="evenodd" d="M112.212 68.0501C113.832 68.1019 115.102 67.954 116.153 68.2658C118.39 68.8891 119.598 69.8806 120.187 71.0982C120.516 71.7657 120.626 72.4775 120.626 73.2239C120.626 74.5885 120.222 75.7553 119.309 76.6286C118.887 77.0311 118.471 77.3407 117.968 77.5564C117.466 77.7727 116.686 78.043 115.785 78.2146C119.434 80.2492 120.391 82.5056 120.391 87.7608H114.061C114.051 82.4234 111.931 80.3316 107.452 80.384V87.8106H102.708V68.0498H112.212L112.212 68.0501ZM107.451 75.7196H111.916C112.979 75.7196 113.614 75.5176 113.931 75.1892C114.191 74.924 114.319 74.5578 114.319 74.2045C114.319 73.7233 114.139 73.3696 113.787 73.1389C113.429 72.9082 112.832 72.7389 112.064 72.7389L107.451 72.7427V75.7192V75.7196Z" fill="#61BF1A"/>
<path fill-rule="evenodd" clip-rule="evenodd" d="M129.991 77.3303C131.834 77.3303 133.337 78.7275 133.337 80.4404C133.337 82.1533 131.834 83.5501 129.991 83.5501C128.148 83.5501 126.645 82.1533 126.645 80.4404C126.645 78.7275 128.148 77.3303 129.991 77.3303Z" fill="#61BF1A"/>
<path fill-rule="evenodd" clip-rule="evenodd" d="M129.991 73.0696C135.348 73.0696 139.716 76.3809 139.716 80.4403C139.716 84.5002 135.348 87.811 129.991 87.811C124.634 87.811 120.265 84.5002 120.265 80.4403C120.265 76.3809 124.634 73.0696 129.991 73.0696ZM129.991 76.288C132.451 76.288 134.459 78.1532 134.459 80.4403C134.459 82.7276 132.451 84.5923 129.991 84.5923C127.53 84.5923 125.523 82.7273 125.523 80.4403C125.523 78.1532 127.53 76.288 129.991 76.288Z" fill="#61BF1A"/>
<path fill-rule="evenodd" clip-rule="evenodd" d="M171.892 68.9718C172.601 68.9718 173.181 69.5514 173.181 70.2613C173.181 70.9716 172.601 71.5512 171.892 71.5512C171.181 71.5512 170.602 70.9716 170.602 70.2613C170.602 69.5514 171.181 68.9718 171.892 68.9718ZM171.892 68.666C172.77 68.666 173.487 69.3827 173.487 70.2613C173.487 71.1403 172.77 71.8572 171.892 71.8572C171.013 71.8572 170.295 71.1403 170.295 70.2613C170.295 69.3827 171.013 68.666 171.892 68.666Z" fill="#61BF1A"/>
<path fill-rule="evenodd" clip-rule="evenodd" d="M171.241 71.0767V69.4453H171.934C172.109 69.4453 172.235 69.4606 172.314 69.4897C172.394 69.5185 172.457 69.5712 172.504 69.646C172.552 69.7207 172.576 69.8064 172.576 69.9025C172.576 70.0249 172.539 70.1265 172.467 70.2064C172.396 70.2859 172.288 70.3364 172.145 70.3565C172.216 70.3984 172.275 70.4438 172.321 70.4939C172.368 70.5438 172.43 70.6316 172.509 70.7585L172.708 71.0764H172.314L172.076 70.7214C171.991 70.5949 171.934 70.5147 171.902 70.4818C171.871 70.4492 171.838 70.4265 171.804 70.4137C171.767 70.4013 171.713 70.3952 171.638 70.3952H171.57V71.0764H171.241L171.241 71.0767ZM171.571 70.1358H171.814C171.972 70.1358 172.071 70.1291 172.111 70.1156C172.15 70.1022 172.18 70.0789 172.202 70.046C172.225 70.0137 172.237 69.9731 172.237 69.9236C172.237 69.869 172.221 69.8246 172.192 69.791C172.163 69.7568 172.121 69.7361 172.068 69.7271C172.041 69.7236 171.961 69.7214 171.827 69.7214H171.57V70.1358H171.571Z" fill="#61BF1A"/>
</g>
<defs>
<clipPath id="clip0">
<rect width="234" height="156" fill="white"/>
</clipPath>
</defs>
</svg>
