<svg width="332" height="222" viewBox="0 0 332 222" fill="none" xmlns="http://www.w3.org/2000/svg">
<path d="M118.242 130.078C119.706 130.078 120.669 129.191 120.669 127.179C120.669 125.441 119.637 124.534 118.172 124.534H117.074V130.078H118.239H118.242ZM116.489 124.022H118.233C120.294 124.022 121.334 125.441 121.334 127.182C121.334 129.23 120.197 130.601 118.311 130.601H116.489V124.022Z" fill="#2B2A29"/>
<path d="M124.202 130.212C125.164 130.212 125.741 129.391 125.741 128.078C125.741 126.871 125.153 125.961 124.202 125.961C123.239 125.961 122.66 126.871 122.66 128.078C122.66 129.383 123.239 130.212 124.202 130.212ZM124.202 130.665C122.862 130.665 122.044 129.622 122.044 128.075C122.044 126.528 122.862 125.505 124.202 125.505C125.55 125.505 126.34 126.528 126.34 128.075C126.34 129.622 125.553 130.665 124.202 130.665Z" fill="#2B2A29"/>
<path d="M129.258 130.665C128.007 130.665 127.034 129.689 127.034 128.075C127.034 126.595 128.007 125.505 129.258 125.505C129.846 125.505 130.221 125.63 130.501 125.825L130.29 126.278C130.049 126.067 129.702 125.961 129.258 125.961C128.526 125.961 127.65 126.734 127.65 128.02C127.65 129.305 128.307 130.145 129.328 130.145C129.788 130.145 130.06 130.028 130.368 129.825L130.504 130.348C130.301 130.473 129.849 130.668 129.261 130.668L129.258 130.665Z" fill="#2B2A29"/>
<path d="M133.069 130.666C132.04 130.666 131.452 130.084 131.452 129.052V125.672L132.048 125.605V128.919C132.048 129.692 132.337 130.145 133.224 130.145C133.832 130.145 134.256 129.761 134.534 129.403V125.672L135.13 125.605V130.599L134.534 130.668V129.934C134.159 130.387 133.638 130.668 133.069 130.668V130.666Z" fill="#2B2A29"/>
<path d="M136.75 125.566L137.338 125.508V126.262C137.762 125.722 138.231 125.508 138.811 125.508C139.523 125.508 139.995 125.778 140.217 126.317C140.669 125.739 141.237 125.508 141.814 125.508C142.854 125.508 143.365 126.078 143.365 127.121V130.599H142.777V127.247C142.777 126.473 142.555 126.02 141.67 126.02C141.063 126.02 140.619 126.415 140.33 126.782C140.339 126.896 140.35 127.005 140.35 127.119V130.596H139.754V127.244C139.754 126.47 139.551 126.017 138.655 126.017C138.067 126.017 137.596 126.412 137.335 126.771V130.596H136.747V125.563L136.75 125.566Z" fill="#2B2A29"/>
<path d="M147.775 127.055C147.775 126.754 147.678 126.493 147.525 126.309C147.448 126.231 147.198 125.961 146.696 125.961C146.474 125.961 146.272 126.009 146.08 126.106C145.897 126.203 145.723 126.348 145.578 126.532C145.356 126.813 145.223 127.132 145.165 127.508H147.775V127.055ZM146.793 130.668C145.917 130.668 145.379 130.293 145.06 129.875C144.752 129.489 144.519 128.91 144.519 128.109C144.519 127.144 144.866 126.484 145.279 126.07C145.653 125.694 146.136 125.508 146.704 125.508C147.367 125.508 147.753 125.786 147.936 125.981C148.341 126.415 148.349 126.927 148.349 127.247C148.349 127.508 148.349 127.692 148.283 127.962H145.112V128.076C145.112 128.29 145.132 128.493 145.171 128.693C145.24 128.994 145.345 129.272 145.528 129.514C145.806 129.892 146.222 130.143 146.849 130.143C147.148 130.143 147.57 130.084 147.986 129.823L148.138 130.276C147.783 130.499 147.464 130.577 147.32 130.604C147.148 130.643 146.973 130.663 146.79 130.663L146.793 130.668Z" fill="#2B2A29"/>
<path d="M149.594 125.566L150.182 125.508V126.262C150.537 125.8 151.076 125.508 151.655 125.508C152.695 125.508 153.272 126.078 153.272 127.121V130.599H152.676V127.247C152.676 126.473 152.387 126.02 151.503 126.02C150.915 126.02 150.443 126.415 150.182 126.774V130.599H149.594V125.566Z" fill="#2B2A29"/>
<path d="M155.766 130.665C155.38 130.665 154.803 130.473 154.803 129.508V126.211H154.071L154.149 125.691H154.803V124.734L155.391 124.598V125.688H156.498L156.42 126.209H155.388V129.505C155.388 129.959 155.524 130.142 155.899 130.142C156.132 130.142 156.409 130.017 156.564 129.892L156.709 130.345C156.487 130.537 156.121 130.665 155.766 130.665Z" fill="#2B2A29"/>
<path d="M160.456 130.665C160.07 130.665 159.493 130.473 159.493 129.508V126.211H158.761L158.839 125.691H159.493V124.734L160.078 124.598V125.688H161.188L161.11 126.209H160.078V129.505C160.078 129.959 160.214 130.142 160.589 130.142C160.822 130.142 161.099 130.017 161.252 129.892L161.396 130.345C161.174 130.537 160.808 130.665 160.453 130.665H160.456Z" fill="#2B2A29"/>
<path d="M163.756 130.212C164.719 130.212 165.299 129.391 165.299 128.078C165.299 126.871 164.711 125.961 163.756 125.961C162.794 125.961 162.214 126.871 162.214 128.078C162.214 129.383 162.791 130.212 163.756 130.212ZM163.756 130.665C162.417 130.665 161.599 129.622 161.599 128.075C161.599 126.528 162.417 125.505 163.756 125.505C165.104 125.505 165.895 126.528 165.895 128.075C165.895 129.622 165.107 130.665 163.756 130.665Z" fill="#2B2A29"/>
<path d="M169.833 127.21V130.598H169.245V124.019H169.833V127.035L172.771 123.952L173.436 124.019L170.499 127.054L173.589 130.598L172.915 130.735L169.833 127.21Z" fill="#2B2A29"/>
<path d="M174.465 125.566L175.053 125.508V126.262C175.408 125.8 175.949 125.508 176.526 125.508C177.566 125.508 178.146 126.078 178.146 127.121V130.599H177.55V127.247C177.55 126.473 177.261 126.02 176.374 126.02C175.788 126.02 175.314 126.415 175.053 126.774V130.599H174.465V125.566Z" fill="#2B2A29"/>
<path d="M181.368 130.212C182.331 130.212 182.908 129.391 182.908 128.078C182.908 126.871 182.323 125.961 181.368 125.961C180.406 125.961 179.826 126.871 179.826 128.078C179.826 129.383 180.403 130.212 181.368 130.212ZM181.368 130.665C180.029 130.665 179.211 129.622 179.211 128.075C179.211 126.528 180.029 125.505 181.368 125.505C182.716 125.505 183.507 126.528 183.507 128.075C183.507 129.622 182.719 130.665 181.368 130.665Z" fill="#2B2A29"/>
<path d="M183.929 125.633L184.594 125.547L185.682 129.892L187.013 125.692H187.454L188.708 129.892L190.083 125.547L190.613 125.633L188.918 130.599H188.341L187.165 126.86L185.912 130.599H185.315L183.929 125.633Z" fill="#2B2A29"/>
<path d="M191.498 123.635L192.086 123.566V130.598H191.498V123.635Z" fill="#2B2A29"/>
<path d="M196.573 127.055C196.573 126.754 196.476 126.493 196.324 126.309C196.246 126.231 195.996 125.961 195.494 125.961C195.272 125.961 195.07 126.009 194.879 126.106C194.695 126.203 194.521 126.348 194.377 126.532C194.155 126.813 194.022 127.132 193.963 127.508H196.573V127.055ZM195.591 130.668C194.715 130.668 194.177 130.293 193.858 129.875C193.55 129.489 193.317 128.91 193.317 128.109C193.317 127.144 193.664 126.484 194.077 126.07C194.451 125.694 194.934 125.508 195.503 125.508C196.165 125.508 196.551 125.786 196.734 125.981C197.139 126.415 197.147 126.927 197.147 127.247C197.147 127.508 197.147 127.692 197.081 127.962H193.911V128.076C193.911 128.29 193.93 128.493 193.969 128.693C194.038 128.994 194.144 129.272 194.327 129.514C194.607 129.892 195.02 130.143 195.647 130.143C195.946 130.143 196.368 130.084 196.784 129.823L196.937 130.276C196.582 130.499 196.263 130.577 196.118 130.604C195.946 130.643 195.772 130.663 195.589 130.663L195.591 130.668Z" fill="#2B2A29"/>
<path d="M200.088 130.145C200.54 130.145 200.956 129.884 201.186 129.606V126.176C200.947 126.05 200.609 125.964 200.301 125.964C199.269 125.964 198.548 126.793 198.548 128.078C198.548 129.394 199.128 130.145 200.09 130.145H200.088ZM199.932 130.668C198.759 130.668 197.93 129.692 197.93 128.148C197.93 126.66 198.903 125.511 200.301 125.511C200.714 125.511 200.983 125.597 201.186 125.686V123.638L201.774 123.569V130.602L201.186 130.671V130.109C200.947 130.426 200.465 130.671 199.935 130.671L199.932 130.668Z" fill="#2B2A29"/>
<path d="M205.085 130.009C205.537 130.009 205.954 129.748 206.184 129.469V126.173C205.942 126.048 205.604 125.961 205.296 125.961C204.267 125.961 203.543 126.735 203.543 128.017C203.543 129.322 204.123 130.006 205.085 130.006V130.009ZM204.719 132.599C204.056 132.599 203.632 132.502 203.255 132.349L203.391 131.762C203.726 131.965 204.209 132.082 204.719 132.082C205.74 132.082 206.184 131.317 206.184 130.284V129.976C205.951 130.284 205.443 130.538 204.933 130.538C203.757 130.538 202.93 129.639 202.93 128.084C202.93 126.604 203.904 125.513 205.299 125.513C205.715 125.513 205.992 125.611 206.195 125.697L206.772 125.513V130.284C206.772 131.909 205.818 132.602 204.722 132.602L204.719 132.599Z" fill="#2B2A29"/>
<path d="M211.257 127.055C211.257 126.754 211.16 126.493 211.007 126.309C210.93 126.231 210.68 125.961 210.181 125.961C209.959 125.961 209.757 126.009 209.565 126.106C209.382 126.203 209.21 126.348 209.066 126.532C208.844 126.813 208.708 127.132 208.65 127.508H211.26V127.055H211.257ZM210.275 130.668C209.399 130.668 208.861 130.293 208.542 129.875C208.234 129.489 208.001 128.91 208.001 128.109C208.001 127.144 208.348 126.484 208.761 126.07C209.135 125.694 209.621 125.508 210.186 125.508C210.849 125.508 211.235 125.786 211.421 125.981C211.826 126.415 211.834 126.927 211.834 127.247C211.834 127.508 211.834 127.692 211.765 127.962H208.594V128.076C208.594 128.29 208.614 128.493 208.653 128.693C208.722 128.994 208.827 129.272 209.01 129.514C209.288 129.892 209.704 130.143 210.331 130.143C210.627 130.143 211.052 130.084 211.465 129.823L211.62 130.276C211.263 130.499 210.946 130.577 210.799 130.604C210.627 130.643 210.453 130.663 210.27 130.663L210.275 130.668Z" fill="#2B2A29"/>
<path d="M213.672 123.641H213.259V123.524H214.249L214.219 123.641H213.806V125.015H213.672V123.641Z" fill="#2B2A29"/>
<path d="M214.405 123.51H214.521L215.059 124.323L215.581 123.51H215.683V125.016H215.548V123.755L215.076 124.501H215.009L214.538 123.783V125.016H214.405V123.51Z" fill="#2B2A29"/>
<path d="M169.636 102.075L143.071 75.4297L116.503 102.075L135.066 120.698H151.073L169.636 102.075Z" stroke="#676766" stroke-width="0.0959129"/>
<path d="M215.833 121.034H116.508V120.695H215.833V121.034Z" fill="#004672"/>
<path d="M145.093 113.183H127.841L127.933 113.275H145.093V113.183Z" fill="#9D9E9E"/>
<path d="M145.093 113.183H127.841L127.933 113.275H145.093V113.183Z" stroke="#9D9E9E" stroke-width="0.0763908"/>
<path d="M145.093 110.913H125.578L125.667 111.005H145.093V110.913Z" fill="#9D9E9E"/>
<path d="M145.093 110.913H125.578L125.667 111.005H145.093V110.913Z" stroke="#9D9E9E" stroke-width="0.0763908"/>
<path d="M145.093 115.457H130.107L130.196 115.548H145.093V115.457Z" fill="#9D9E9E"/>
<path d="M145.093 115.457H130.107L130.196 115.548H145.093V115.457Z" stroke="#9D9E9E" stroke-width="0.0763908"/>
<path d="M140.627 108.641H123.312L123.403 108.732H140.627V108.641Z" fill="#9D9E9E"/>
<path d="M140.627 108.641H123.312L123.403 108.732H140.627V108.641Z" stroke="#9D9E9E" stroke-width="0.0763908"/>
<path d="M142.538 106.371H121.048L121.137 106.46H142.538V106.371Z" fill="#9D9E9E"/>
<path d="M142.538 106.371H121.048L121.137 106.46H142.538V106.371Z" stroke="#9D9E9E" stroke-width="0.0763908"/>
<path d="M145.093 104.098H118.782L118.874 104.19H145.093V104.098Z" fill="#9D9E9E"/>
<path d="M145.093 104.098H118.782L118.874 104.19H145.093V104.098Z" stroke="#9D9E9E" stroke-width="0.0763908"/>
<path d="M146.272 101.828H117.016L116.924 101.917H146.272V101.828Z" fill="#9D9E9E"/>
<path d="M146.272 101.828H117.016L116.924 101.917H146.272V101.828Z" stroke="#9D9E9E" stroke-width="0.0763908"/>
<path d="M146.272 99.5547H119.279L119.188 99.6465H146.272V99.5547Z" fill="#9D9E9E"/>
<path d="M146.272 99.5547H119.279L119.188 99.6465H146.272V99.5547Z" stroke="#9D9E9E" stroke-width="0.0763908"/>
<path d="M146.272 97.2844H121.545L121.453 97.3734H146.272V97.2844Z" fill="#9D9E9E"/>
<path d="M146.272 97.2844H121.545L121.453 97.3734H146.272V97.2844Z" stroke="#9D9E9E" stroke-width="0.0763908"/>
<path d="M146.271 95.012H123.808L123.719 95.1038H146.271V95.012Z" fill="#9D9E9E"/>
<path d="M146.271 95.012H123.808L123.719 95.1038H146.271V95.012Z" stroke="#9D9E9E" stroke-width="0.0763908"/>
<path d="M146.271 92.7417H126.074L125.983 92.8307H146.271V92.7417Z" fill="#9D9E9E"/>
<path d="M146.271 92.7417H126.074L125.983 92.8307H146.271V92.7417Z" stroke="#9D9E9E" stroke-width="0.0763908"/>
<path d="M146.272 90.4692H128.34L128.249 90.561H146.272V90.4692Z" fill="#9D9E9E"/>
<path d="M146.272 90.4692H128.34L128.249 90.561H146.272V90.4692Z" stroke="#9D9E9E" stroke-width="0.0763908"/>
<path d="M144.108 88.199H130.604L130.512 88.288H144.108V88.199Z" fill="#9D9E9E"/>
<path d="M144.108 88.199H130.604L130.512 88.288H144.108V88.199Z" stroke="#9D9E9E" stroke-width="0.0763908"/>
<path d="M144.857 85.9258H132.87L132.778 86.0176H144.779L144.857 85.9258Z" fill="#9D9E9E"/>
<path d="M144.857 85.9258H132.87L132.778 86.0176H144.779L144.857 85.9258Z" stroke="#9D9E9E" stroke-width="0.0763908"/>
<path d="M146.657 83.6558H135.133L135.044 83.7448H146.59C146.613 83.7142 146.637 83.6836 146.66 83.6558H146.657Z" fill="#9D9E9E"/>
<path d="M146.657 83.6558H135.133L135.044 83.7448H146.59C146.613 83.7142 146.637 83.6836 146.66 83.6558H146.657Z" stroke="#9D9E9E" stroke-width="0.0763908"/>
<path d="M148.371 81.3831H137.396L137.307 81.4721H148.302C148.324 81.4415 148.349 81.4109 148.371 81.3831Z" fill="#9D9E9E"/>
<path d="M148.371 81.3831H137.396L137.307 81.4721H148.302C148.324 81.4415 148.349 81.4109 148.371 81.3831Z" stroke="#9D9E9E" stroke-width="0.0763908"/>
<path d="M146.477 79.113H139.662L139.57 79.2021H146.571L146.477 79.113Z" fill="#9D9E9E"/>
<path d="M146.477 79.113H139.662L139.57 79.2021H146.571L146.477 79.113Z" stroke="#9D9E9E" stroke-width="0.0763908"/>
<path d="M144.213 76.8403H141.925L141.834 76.9294H144.302L144.213 76.8403Z" fill="#9D9E9E"/>
<path d="M144.213 76.8403H141.925L141.834 76.9294H144.302L144.213 76.8403Z" stroke="#9D9E9E" stroke-width="0.0763908"/>
<path d="M145.093 117.729H132.37L132.462 117.818H145.093V117.729Z" fill="#9D9E9E"/>
<path d="M145.093 117.729H132.37L132.462 117.818H145.093V117.729Z" stroke="#9D9E9E" stroke-width="0.0763908"/>
<path d="M134.636 119.999L134.725 120.091H151.414L151.502 119.999H134.636Z" fill="#9D9E9E"/>
<path d="M134.636 119.999L134.725 120.091H151.414L151.502 119.999H134.636Z" stroke="#9D9E9E" stroke-width="0.0763908"/>
<path d="M122.044 96.7812V107.369L122.135 107.461V96.6921L122.044 96.7812Z" fill="#9D9E9E"/>
<path d="M122.044 96.7812V107.369L122.135 107.461V96.6921L122.044 96.7812Z" stroke="#9D9E9E" stroke-width="0.0763908"/>
<path d="M124.31 94.5108V109.639L124.399 109.731V94.4189L124.31 94.5108Z" fill="#9D9E9E"/>
<path d="M124.31 94.5108V109.639L124.399 109.731V94.4189L124.31 94.5108Z" stroke="#9D9E9E" stroke-width="0.0763908"/>
<path d="M119.781 99.0542V105.099L119.87 105.188V98.9624L119.781 99.0542Z" fill="#9D9E9E"/>
<path d="M119.781 99.0542V105.099L119.87 105.188V98.9624L119.781 99.0542Z" stroke="#9D9E9E" stroke-width="0.0763908"/>
<path d="M126.574 92.2383V111.912L126.662 112.004V92.1465L126.574 92.2383Z" fill="#9D9E9E"/>
<path d="M126.574 92.2383V111.912L126.662 112.004V92.1465L126.574 92.2383Z" stroke="#9D9E9E" stroke-width="0.0763908"/>
<path d="M128.839 89.968V114.185L128.928 114.274V89.8762L128.839 89.968Z" fill="#9D9E9E"/>
<path d="M128.839 89.968V114.185L128.928 114.274V89.8762L128.839 89.968Z" stroke="#9D9E9E" stroke-width="0.0763908"/>
<path d="M131.103 87.6952V116.455L131.194 116.547V87.6062L131.103 87.6952Z" fill="#9D9E9E"/>
<path d="M131.103 87.6952V116.455L131.194 116.547V87.6062L131.103 87.6952Z" stroke="#9D9E9E" stroke-width="0.0763908"/>
<path d="M133.369 85.4253V118.728L133.458 118.82V85.3335L133.369 85.4253Z" fill="#9D9E9E"/>
<path d="M133.369 85.4253V118.728L133.458 118.82V85.3335L133.369 85.4253Z" stroke="#9D9E9E" stroke-width="0.0763908"/>
<path d="M117.515 101.327V102.826L117.604 102.918V101.235L117.515 101.327Z" fill="#9D9E9E"/>
<path d="M117.515 101.327V102.826L117.604 102.918V101.235L117.515 101.327Z" stroke="#9D9E9E" stroke-width="0.0763908"/>
<path d="M135.632 83.1521V120.697H135.723V83.0603L135.632 83.1521Z" fill="#9D9E9E"/>
<path d="M135.632 83.1521V120.697H135.723V83.0603L135.632 83.1521Z" stroke="#9D9E9E" stroke-width="0.0763908"/>
<path d="M137.898 80.8821V120.695H137.987V80.7903L137.898 80.8821Z" fill="#9D9E9E"/>
<path d="M137.898 80.8821V120.695H137.987V80.7903L137.898 80.8821Z" stroke="#9D9E9E" stroke-width="0.0763908"/>
<path d="M140.161 78.6098V120.695H140.253V78.5208L140.161 78.6098Z" fill="#9D9E9E"/>
<path d="M140.161 78.6098V120.695H140.253V78.5208L140.161 78.6098Z" stroke="#9D9E9E" stroke-width="0.0763908"/>
<path d="M142.427 76.3394V120.698H142.516V76.2476L142.427 76.3394Z" fill="#9D9E9E"/>
<path d="M142.427 76.3394V120.698H142.516V76.2476L142.427 76.3394Z" stroke="#9D9E9E" stroke-width="0.0763908"/>
<path d="M144.782 86.0125V77.4107L144.691 77.3188V86.0959L144.782 86.0125Z" fill="#9D9E9E"/>
<path d="M144.782 86.0125V77.4107L144.691 77.3188V86.0959L144.782 86.0125Z" stroke="#9D9E9E" stroke-width="0.0763908"/>
<path d="M147.048 83.1387V79.6835L146.957 79.5945V83.2611C146.987 83.2222 147.018 83.1804 147.048 83.1415V83.1387Z" fill="#9D9E9E"/>
<path d="M147.048 83.1387V79.6835L146.957 79.5945V83.2611C146.987 83.2222 147.018 83.1804 147.048 83.1415V83.1387Z" stroke="#9D9E9E" stroke-width="0.0763908"/>
<path d="M124.31 95.012V95.1038H126.574V99.6467H126.665V95.1038H128.928V95.012H124.31Z" fill="#9D9E9E"/>
<path d="M124.31 95.012V95.1038H126.574V99.6467H126.665V95.1038H128.928V95.012H124.31Z" stroke="#9D9E9E" stroke-width="0.0763908"/>
<path d="M128.839 95.012V99.6467H128.928V97.3738H133.369V99.6467H133.457V95.012H133.369V97.2848H128.928V95.012H128.839Z" fill="#9D9E9E"/>
<path d="M128.839 95.012V99.6467H128.928V97.3738H133.369V99.6467H133.457V95.012H133.369V97.2848H128.928V95.012H128.839Z" stroke="#9D9E9E" stroke-width="0.0763908"/>
<path d="M133.369 95.012V99.6467H137.987V99.5549H133.458V95.012H133.369Z" fill="#9D9E9E"/>
<path d="M133.369 95.012V99.6467H137.987V99.5549H133.458V95.012H133.369Z" stroke="#9D9E9E" stroke-width="0.0763908"/>
<path d="M140.211 117.735H137.948V120.008H140.211V117.735Z" fill="#004672"/>
<path d="M157.272 79.8921C157.272 79.4942 156.953 79.1743 156.556 79.1743C156.16 79.1743 155.838 79.497 155.838 79.8921C155.838 80.2899 156.16 80.6098 156.556 80.6098C156.953 80.6098 157.272 80.2871 157.272 79.8921Z" fill="#2B2A29"/>
<path fill-rule="evenodd" clip-rule="evenodd" d="M157.699 77.7805H152.923C152.29 77.7833 151.25 77.8028 150.953 78.0587C150.632 78.3341 145.234 85.5477 145.234 85.5477L153.81 89.2477C153.81 89.2477 154.778 91.5568 154.595 93.5459C154.409 95.535 153.394 99.0041 150.812 101.825C148.233 104.646 144.036 107.698 144.036 107.698V110.939H142.486V111.398H142.341V113.22H140.203V115.493H142.341V116.208C142.341 116.208 143.112 115.751 143.775 115.482H144.477C144.444 115.935 144.355 117.065 144.355 117.504C144.355 118.06 144.311 119.076 144.311 119.076C144.311 119.076 144.216 119.629 143.573 119.629C142.927 119.629 142.419 118.845 142.419 118.845V120.695H157.91C157.91 120.695 157.724 119.304 156.526 119.212C156.11 119.182 155.674 119.193 155.255 119.207C154.465 119.229 153.719 119.254 153.208 118.981C152.426 118.567 151.597 117.871 151.272 115.376C150.951 112.88 150.926 109.428 151.211 107.745C152.01 103.03 156.112 98.8677 156.112 94.9841C156.112 90.9753 154.728 89.142 154.806 87.8456C154.881 86.591 158.647 81.2969 158.647 81.2969H160.722C160.722 81.2969 161.504 81.3887 161.551 81.8978V80.0033C161.551 79.3551 160.949 78.8933 160.442 78.8933H158.78V78.387C158.78 78.387 158.78 77.7861 157.69 77.7861L157.699 77.7805ZM155.028 79.8948C155.028 79.561 155.155 79.2577 155.363 79.0296H157.258C157.466 79.2577 157.593 79.561 157.593 79.8948C157.593 80.6042 157.019 81.1801 156.309 81.1801C155.602 81.1801 155.028 80.6042 155.028 79.8948ZM146.202 119.585C145.62 119.46 145.384 118.517 145.833 115.178C146.477 110.399 147.8 108.61 147.8 108.61C147.8 108.61 147.708 110.46 147.586 111.448C147.464 112.433 147.126 114.622 147.126 114.622C147.126 114.622 148.08 114.436 148.599 114.283C149.12 114.13 149.891 113.79 149.891 113.79C149.891 113.79 149.952 115.885 150.013 116.75C150.074 117.613 150.413 119.585 150.413 119.585C150.413 119.585 149.583 119.646 149.306 119.554C149.031 119.46 148.538 119.031 148.077 119.062C147.65 119.09 146.771 119.596 146.302 119.596C146.266 119.596 146.23 119.593 146.199 119.588L146.202 119.585Z" fill="url(#paint0_linear)"/>
<path fill-rule="evenodd" clip-rule="evenodd" d="M120.785 144.773H117.959L117.443 146.42H116.164L118.81 138.761H120.18L122.835 146.42H121.301L120.782 144.773H120.785ZM118.264 143.794H120.483L119.373 140.263L118.261 143.794H118.264Z" fill="#2B2A29"/>
<path fill-rule="evenodd" clip-rule="evenodd" d="M131.428 146.122C130.812 146.417 130.138 146.573 129.456 146.573C129.456 146.573 129.456 146.573 129.453 146.573C126.712 146.573 125.595 144.547 125.595 142.433C125.595 140.319 127.231 138.608 129.619 138.608C129.664 138.608 129.705 138.605 129.75 138.605C130.329 138.605 130.901 138.733 131.425 138.981L131.075 140.038C130.826 139.804 130.246 139.657 129.616 139.657C128.083 139.657 127.048 140.939 127.048 142.436C127.048 144.077 127.891 145.518 129.45 145.518C129.483 145.518 129.519 145.521 129.553 145.521C130.118 145.521 130.673 145.365 131.153 145.07L131.422 146.128L131.428 146.122Z" fill="#2B2A29"/>
<path fill-rule="evenodd" clip-rule="evenodd" d="M136.347 144.773H133.51L132.994 146.42H131.715L134.353 138.756H135.723L138.386 146.42H136.844L136.345 144.773H136.347ZM133.826 143.794H136.045L134.933 140.263L133.823 143.794H133.826Z" fill="#2B2A29"/>
<path fill-rule="evenodd" clip-rule="evenodd" d="M140.563 141.106V146.417H139.371V138.752H140.472L144.238 144.038V138.752H145.439V146.417H144.319L140.563 141.106Z" fill="#2B2A29"/>
<path fill-rule="evenodd" clip-rule="evenodd" d="M153.736 142.433C153.736 144.828 152.449 146.572 150.246 146.572C148.047 146.572 146.724 144.823 146.724 142.433C146.724 140.185 148.194 138.608 150.246 138.608C152.299 138.608 153.736 140.171 153.736 142.433ZM152.29 142.433C152.29 140.933 151.694 139.654 150.238 139.654C148.782 139.654 148.174 140.936 148.174 142.433C148.174 143.93 148.779 145.515 150.238 145.515C151.694 145.515 152.293 143.921 152.293 142.433H152.29Z" fill="#2B2A29"/>
<path fill-rule="evenodd" clip-rule="evenodd" d="M156.201 141.106V146.417H155.011V138.752H156.112L159.879 144.038V138.752H161.08V146.417H159.968L156.201 141.106Z" fill="#2B2A29"/>
<path fill-rule="evenodd" clip-rule="evenodd" d="M170.74 146.122C170.125 146.417 169.451 146.573 168.768 146.573C168.768 146.573 168.768 146.573 168.766 146.573C166.025 146.573 164.91 144.547 164.91 142.433C164.91 140.319 166.547 138.608 168.935 138.608C168.976 138.608 169.021 138.605 169.065 138.605C169.642 138.605 170.216 138.733 170.738 138.981L170.391 140.038C170.141 139.804 169.562 139.657 168.935 139.657C167.398 139.657 166.366 140.939 166.366 142.436C166.366 144.077 167.207 145.518 168.766 145.518C168.802 145.518 168.838 145.521 168.871 145.521C169.434 145.521 169.989 145.365 170.469 145.07L170.738 146.128L170.74 146.122Z" fill="#2B2A29"/>
<path fill-rule="evenodd" clip-rule="evenodd" d="M178.251 142.433C178.251 144.828 176.964 146.572 174.762 146.572C172.562 146.572 171.239 144.823 171.239 142.433C171.239 140.185 172.709 138.608 174.762 138.608C176.814 138.608 178.251 140.171 178.251 142.433ZM176.803 142.433C176.803 140.933 176.209 139.654 174.753 139.654C173.294 139.654 172.69 140.936 172.69 142.433C172.69 143.93 173.294 145.515 174.753 145.515C176.209 145.515 176.803 143.921 176.803 142.433Z" fill="#2B2A29"/>
<path fill-rule="evenodd" clip-rule="evenodd" d="M185.337 140.947L183.296 144.533H182.78L180.808 141.284V146.417H179.618V138.752H180.717L183.207 142.814L185.518 138.752H186.705V146.417H185.337V140.947Z" fill="#2B2A29"/>
<path fill-rule="evenodd" clip-rule="evenodd" d="M190.91 138.752C192.716 138.752 193.916 139.437 193.916 141.226C193.916 142.589 193.143 143.86 191.515 143.86H190.66L190.996 142.814H191.246C192.097 142.814 192.444 142.113 192.444 141.228C192.444 140.193 191.748 139.801 190.807 139.801H190.136V146.419H188.769V138.755H190.913L190.91 138.752Z" fill="#2B2A29"/>
<path fill-rule="evenodd" clip-rule="evenodd" d="M198.812 144.773H195.986L195.47 146.42H194.191L196.837 138.761H198.205L200.873 146.42H199.336L198.809 144.773H198.812ZM196.288 143.794H198.51L197.397 140.263L196.285 143.794H196.288Z" fill="#2B2A29"/>
<path fill-rule="evenodd" clip-rule="evenodd" d="M203.036 141.106V146.417H201.849V138.752H202.947L206.717 144.038V138.752H207.915V146.417H206.806L203.036 141.106Z" fill="#2B2A29"/>
<path fill-rule="evenodd" clip-rule="evenodd" d="M212.879 146.417H211.512V143.512L209.032 138.9L210.425 138.719L212.289 142.433L214.058 138.719L215.27 138.9L212.879 143.498V146.417Z" fill="#2B2A29"/>
<defs>
<linearGradient id="paint0_linear" x1="150.881" y1="120.695" x2="150.881" y2="77.7833" gradientUnits="userSpaceOnUse">
<stop stop-color="#004672"/>
<stop offset="1" stop-color="#006CB5"/>
</linearGradient>
</defs>
</svg>
