<svg width="120" height="127" viewBox="0 0 120 127" fill="none" xmlns="http://www.w3.org/2000/svg">
<circle cx="66" cy="3" r="3" fill="#12A0D2"/>
<circle cx="48" cy="15" r="3" fill="#12A0D2"/>
<circle cx="30" cy="26" r="3" fill="#12A0D2"/>
<circle cx="12" cy="37" r="3" fill="#12A0D2"/>
<circle cx="57" cy="9" r="3" fill="#12A0D2"/>
<circle cx="39" cy="21" r="3" fill="#12A0D2"/>
<circle cx="21" cy="32" r="3" fill="#12A0D2"/>
<circle cx="3" cy="43" r="3" fill="#12A0D2"/>
<circle cx="83" cy="30" r="3" fill="#12A0D2"/>
<circle cx="65" cy="42" r="3" fill="#12A0D2"/>
<circle cx="47" cy="53" r="3" fill="#12A0D2"/>
<circle cx="29" cy="64" r="3" fill="#12A0D2"/>
<circle cx="74" cy="36" r="3" fill="#12A0D2"/>
<circle cx="56" cy="48" r="3" fill="#12A0D2"/>
<circle cx="38" cy="59" r="3" fill="#12A0D2"/>
<circle cx="20" cy="70" r="3" fill="#12A0D2"/>
<circle cx="100" cy="57" r="3" fill="#12A0D2"/>
<circle cx="82" cy="69" r="3" fill="#12A0D2"/>
<circle cx="64" cy="80" r="3" fill="#12A0D2"/>
<circle cx="46" cy="91" r="3" fill="#12A0D2"/>
<circle cx="91" cy="63" r="3" fill="#12A0D2"/>
<circle cx="73" cy="75" r="3" fill="#12A0D2"/>
<circle cx="55" cy="86" r="3" fill="#12A0D2"/>
<circle cx="37" cy="97" r="3" fill="#12A0D2"/>
<circle cx="71" cy="12" r="3" fill="#12A0D2"/>
<circle cx="53" cy="24" r="3" fill="#12A0D2"/>
<circle cx="35" cy="35" r="3" fill="#12A0D2"/>
<circle cx="17" cy="46" r="3" fill="#12A0D2"/>
<circle cx="62" cy="18" r="3" fill="#12A0D2"/>
<circle cx="44" cy="30" r="3" fill="#12A0D2"/>
<circle cx="26" cy="41" r="3" fill="#12A0D2"/>
<circle cx="8" cy="52" r="3" fill="#12A0D2"/>
<circle cx="88" cy="39" r="3" fill="#12A0D2"/>
<circle cx="70" cy="51" r="3" fill="#12A0D2"/>
<circle cx="52" cy="62" r="3" fill="#12A0D2"/>
<circle cx="34" cy="73" r="3" fill="#12A0D2"/>
<circle cx="79" cy="45" r="3" fill="#12A0D2"/>
<circle cx="61" cy="57" r="3" fill="#12A0D2"/>
<circle cx="43" cy="68" r="3" fill="#12A0D2"/>
<circle cx="25" cy="79" r="3" fill="#12A0D2"/>
<circle cx="105" cy="66" r="3" fill="#12A0D2"/>
<circle cx="87" cy="78" r="3" fill="#12A0D2"/>
<circle cx="69" cy="89" r="3" fill="#12A0D2"/>
<circle cx="51" cy="100" r="3" fill="#12A0D2"/>
<circle cx="96" cy="72" r="3" fill="#12A0D2"/>
<circle cx="78" cy="84" r="3" fill="#12A0D2"/>
<circle cx="60" cy="95" r="3" fill="#12A0D2"/>
<circle cx="42" cy="106" r="3" fill="#12A0D2"/>
<circle cx="77" cy="21" r="3" fill="#12A0D2"/>
<circle cx="59" cy="33" r="3" fill="#12A0D2"/>
<circle cx="41" cy="44" r="3" fill="#12A0D2"/>
<circle cx="23" cy="55" r="3" fill="#12A0D2"/>
<circle cx="68" cy="27" r="3" fill="#12A0D2"/>
<circle cx="50" cy="39" r="3" fill="#12A0D2"/>
<circle cx="32" cy="50" r="3" fill="#12A0D2"/>
<circle cx="14" cy="61" r="3" fill="#12A0D2"/>
<circle cx="94" cy="48" r="3" fill="#12A0D2"/>
<circle cx="76" cy="60" r="3" fill="#12A0D2"/>
<circle cx="58" cy="71" r="3" fill="#12A0D2"/>
<circle cx="40" cy="82" r="3" fill="#12A0D2"/>
<circle cx="85" cy="54" r="3" fill="#12A0D2"/>
<circle cx="67" cy="66" r="3" fill="#12A0D2"/>
<circle cx="49" cy="77" r="3" fill="#12A0D2"/>
<circle cx="31" cy="88" r="3" fill="#12A0D2"/>
<circle cx="111" cy="75" r="3" fill="#12A0D2"/>
<circle cx="93" cy="87" r="3" fill="#12A0D2"/>
<circle cx="75" cy="98" r="3" fill="#12A0D2"/>
<circle cx="57" cy="109" r="3" fill="#12A0D2"/>
<circle cx="102" cy="81" r="3" fill="#12A0D2"/>
<circle cx="84" cy="93" r="3" fill="#12A0D2"/>
<circle cx="66" cy="104" r="3" fill="#12A0D2"/>
<circle cx="48" cy="115" r="3" fill="#12A0D2"/>
<circle cx="117" cy="84" r="3" fill="#12A0D2"/>
<circle cx="99" cy="96" r="3" fill="#12A0D2"/>
<circle cx="81" cy="107" r="3" fill="#12A0D2"/>
<circle cx="63" cy="118" r="3" fill="#12A0D2"/>
<circle cx="108" cy="90" r="3" fill="#12A0D2"/>
<circle cx="90" cy="102" r="3" fill="#12A0D2"/>
<circle cx="72" cy="113" r="3" fill="#12A0D2"/>
<circle cx="54" cy="124" r="3" fill="#12A0D2"/>
</svg>
