<svg width="287" height="461" viewBox="0 0 287 461" fill="none" xmlns="http://www.w3.org/2000/svg">
<g opacity="0.04">
<circle cx="239.25" cy="10.875" r="10.875" fill="#252525"/>
<circle cx="174" cy="54.375" r="10.875" fill="#252525"/>
<circle cx="108.75" cy="94.25" r="10.875" fill="#252525"/>
<circle cx="43.5" cy="134.125" r="10.875" fill="#252525"/>
<circle cx="206.625" cy="32.625" r="10.875" fill="#252525"/>
<circle cx="141.375" cy="76.125" r="10.875" fill="#252525"/>
<circle cx="76.1249" cy="116" r="10.875" fill="#252525"/>
<circle cx="10.875" cy="155.875" r="10.875" fill="#252525"/>
<circle cx="235.625" cy="152.25" r="10.875" fill="#252525"/>
<circle cx="170.375" cy="192.125" r="10.875" fill="#252525"/>
<circle cx="105.125" cy="232" r="10.875" fill="#252525"/>
<circle cx="268.25" cy="130.5" r="10.875" fill="#252525"/>
<circle cx="203" cy="174" r="10.875" fill="#252525"/>
<circle cx="137.75" cy="213.875" r="10.875" fill="#252525"/>
<circle cx="72.5" cy="253.75" r="10.875" fill="#252525"/>
<circle cx="297.25" cy="250.125" r="10.875" fill="#252525"/>
<circle cx="232" cy="290" r="10.875" fill="#252525"/>
<circle cx="166.75" cy="329.875" r="10.875" fill="#252525"/>
<circle cx="264.625" cy="271.875" r="10.875" fill="#252525"/>
<circle cx="199.375" cy="311.75" r="10.875" fill="#252525"/>
<circle cx="134.125" cy="351.625" r="10.875" fill="#252525"/>
<circle cx="257.375" cy="43.5" r="10.875" fill="#252525"/>
<circle cx="192.125" cy="87" r="10.875" fill="#252525"/>
<circle cx="126.875" cy="126.875" r="10.875" fill="#252525"/>
<circle cx="61.6251" cy="166.75" r="10.875" fill="#252525"/>
<circle cx="224.75" cy="65.25" r="10.875" fill="#252525"/>
<circle cx="159.5" cy="108.75" r="10.875" fill="#252525"/>
<circle cx="94.25" cy="148.625" r="10.875" fill="#252525"/>
<circle cx="28.9999" cy="188.5" r="10.875" fill="#252525"/>
<circle cx="253.75" cy="184.875" r="10.875" fill="#252525"/>
<circle cx="188.5" cy="224.75" r="10.875" fill="#252525"/>
<circle cx="123.25" cy="264.625" r="10.875" fill="#252525"/>
<circle cx="286.375" cy="163.125" r="10.875" fill="#252525"/>
<circle cx="221.125" cy="206.625" r="10.875" fill="#252525"/>
<circle cx="155.875" cy="246.5" r="10.875" fill="#252525"/>
<circle cx="90.625" cy="286.375" r="10.875" fill="#252525"/>
<circle cx="250.125" cy="322.625" r="10.875" fill="#252525"/>
<circle cx="184.875" cy="362.5" r="10.875" fill="#252525"/>
<circle cx="282.75" cy="304.5" r="10.875" fill="#252525"/>
<circle cx="217.5" cy="344.375" r="10.875" fill="#252525"/>
<circle cx="152.25" cy="384.25" r="10.875" fill="#252525"/>
<circle cx="279.125" cy="76.125" r="10.875" fill="#252525"/>
<circle cx="213.875" cy="119.625" r="10.875" fill="#252525"/>
<circle cx="148.625" cy="159.5" r="10.875" fill="#252525"/>
<circle cx="83.3749" cy="199.375" r="10.875" fill="#252525"/>
<circle cx="246.5" cy="97.875" r="10.875" fill="#252525"/>
<circle cx="181.25" cy="141.375" r="10.875" fill="#252525"/>
<circle cx="116" cy="181.25" r="10.875" fill="#252525"/>
<circle cx="50.75" cy="221.125" r="10.875" fill="#252525"/>
<circle cx="275.5" cy="217.5" r="10.875" fill="#252525"/>
<circle cx="210.25" cy="257.375" r="10.875" fill="#252525"/>
<circle cx="145" cy="297.25" r="10.875" fill="#252525"/>
<circle cx="242.875" cy="239.25" r="10.875" fill="#252525"/>
<circle cx="177.625" cy="279.125" r="10.875" fill="#252525"/>
<circle cx="112.375" cy="319" r="10.875" fill="#252525"/>
<circle cx="271.875" cy="355.25" r="10.875" fill="#252525"/>
<circle cx="206.625" cy="395.125" r="10.875" fill="#252525"/>
<circle cx="239.25" cy="377" r="10.875" fill="#252525"/>
<circle cx="174" cy="416.875" r="10.875" fill="#252525"/>
<circle cx="293.625" cy="387.875" r="10.875" fill="#252525"/>
<circle cx="228.375" cy="427.75" r="10.875" fill="#252525"/>
<circle cx="261" cy="409.625" r="10.875" fill="#252525"/>
<circle cx="195.75" cy="449.5" r="10.875" fill="#252525"/>
</g>
</svg>
