<svg width="274" height="461" viewBox="0 0 274 461" fill="none" xmlns="http://www.w3.org/2000/svg">
<g opacity="0.04">
<circle cx="78.2499" cy="10.875" r="10.875" fill="#252525"/>
<circle cx="13" cy="54.375" r="10.875" fill="#252525"/>
<circle cx="45.625" cy="32.625" r="10.875" fill="#252525"/>
<circle cx="139.875" cy="108.75" r="10.875" fill="#252525"/>
<circle cx="74.625" cy="152.25" r="10.875" fill="#252525"/>
<circle cx="9.37509" cy="192.125" r="10.875" fill="#252525"/>
<circle cx="107.25" cy="130.5" r="10.875" fill="#252525"/>
<circle cx="42" cy="174" r="10.875" fill="#252525"/>
<circle cx="201.5" cy="206.625" r="10.875" fill="#252525"/>
<circle cx="136.25" cy="250.125" r="10.875" fill="#252525"/>
<circle cx="71.0001" cy="290" r="10.875" fill="#252525"/>
<circle cx="5.74998" cy="329.875" r="10.875" fill="#252525"/>
<circle cx="168.875" cy="228.375" r="10.875" fill="#252525"/>
<circle cx="103.625" cy="271.875" r="10.875" fill="#252525"/>
<circle cx="38.375" cy="311.75" r="10.875" fill="#252525"/>
<circle cx="96.375" cy="43.5" r="10.875" fill="#252525"/>
<circle cx="31.1249" cy="87" r="10.875" fill="#252525"/>
<circle cx="63.7499" cy="65.25" r="10.875" fill="#252525"/>
<circle cx="-1.50003" cy="108.75" r="10.875" fill="#252525"/>
<circle cx="158" cy="141.375" r="10.875" fill="#252525"/>
<circle cx="92.75" cy="184.875" r="10.875" fill="#252525"/>
<circle cx="27.5" cy="224.75" r="10.875" fill="#252525"/>
<circle cx="125.375" cy="163.125" r="10.875" fill="#252525"/>
<circle cx="60.125" cy="206.625" r="10.875" fill="#252525"/>
<circle cx="-5.12494" cy="246.5" r="10.875" fill="#252525"/>
<circle cx="219.625" cy="239.25" r="10.875" fill="#252525"/>
<circle cx="154.375" cy="282.75" r="10.875" fill="#252525"/>
<circle cx="89.125" cy="322.625" r="10.875" fill="#252525"/>
<circle cx="23.8749" cy="362.5" r="10.875" fill="#252525"/>
<circle cx="187" cy="261" r="10.875" fill="#252525"/>
<circle cx="121.75" cy="304.5" r="10.875" fill="#252525"/>
<circle cx="56.5001" cy="344.375" r="10.875" fill="#252525"/>
<circle cx="-8.75005" cy="384.25" r="10.875" fill="#252525"/>
<circle cx="118.125" cy="76.125" r="10.875" fill="#252525"/>
<circle cx="52.875" cy="119.625" r="10.875" fill="#252525"/>
<circle cx="85.4999" cy="97.875" r="10.875" fill="#252525"/>
<circle cx="20.25" cy="141.375" r="10.875" fill="#252525"/>
<circle cx="179.75" cy="174" r="10.875" fill="#252525"/>
<circle cx="114.5" cy="217.5" r="10.875" fill="#252525"/>
<circle cx="49.2501" cy="257.375" r="10.875" fill="#252525"/>
<circle cx="147.125" cy="195.75" r="10.875" fill="#252525"/>
<circle cx="81.875" cy="239.25" r="10.875" fill="#252525"/>
<circle cx="16.6249" cy="279.125" r="10.875" fill="#252525"/>
<circle cx="241.375" cy="271.875" r="10.875" fill="#252525"/>
<circle cx="176.125" cy="315.375" r="10.875" fill="#252525"/>
<circle cx="110.875" cy="355.25" r="10.875" fill="#252525"/>
<circle cx="45.625" cy="395.125" r="10.875" fill="#252525"/>
<circle cx="208.75" cy="293.625" r="10.875" fill="#252525"/>
<circle cx="143.5" cy="337.125" r="10.875" fill="#252525"/>
<circle cx="78.2499" cy="377" r="10.875" fill="#252525"/>
<circle cx="13" cy="416.875" r="10.875" fill="#252525"/>
<circle cx="263.125" cy="304.5" r="10.875" fill="#252525"/>
<circle cx="197.875" cy="348" r="10.875" fill="#252525"/>
<circle cx="132.625" cy="387.875" r="10.875" fill="#252525"/>
<circle cx="67.375" cy="427.75" r="10.875" fill="#252525"/>
<circle cx="230.5" cy="326.25" r="10.875" fill="#252525"/>
<circle cx="165.25" cy="369.75" r="10.875" fill="#252525"/>
<circle cx="100" cy="409.625" r="10.875" fill="#252525"/>
<circle cx="34.75" cy="449.5" r="10.875" fill="#252525"/>
</g>
</svg>
