<svg width="80" height="79" viewBox="0 0 80 79" fill="none" xmlns="http://www.w3.org/2000/svg">
<path d="M39.9998 78.4862C39.6111 78.4862 39.2243 78.479 38.8381 78.4678L46.8292 56.5708H57.8264C59.7564 56.5708 61.8759 55.0911 62.5357 53.2835L71.2056 29.5409C72.6238 25.6535 70.3906 22.4732 66.2424 22.4732H50.9859L38.1849 57.5454H38.1803L30.9234 77.4269C13.7066 73.3454 0.900391 57.914 0.900391 39.499C0.900391 21.6146 12.9784 6.54526 29.4446 1.95217L21.9562 22.4732H21.9542L9.50583 56.5708L17.7929 56.5714L28.3797 27.5975H34.6078L24.021 56.5714L32.3048 56.5728L42.1706 29.5409C43.5895 25.6535 41.3569 22.4732 37.212 22.4732H30.2465L38.2448 0.554504C38.8276 0.528925 39.4131 0.513184 40.0025 0.513184C61.5976 0.513184 79.1032 17.968 79.1032 39.4997C79.1032 61.0307 61.597 78.4855 40.0025 78.4855L39.9998 78.4862ZM63.6579 27.5765H57.4317L48.7125 51.43H54.9386L63.6579 27.5765Z" fill="#0096D6"/>
</svg>
