<svg width="200" height="135" viewBox="0 0 200 135" fill="none" xmlns="http://www.w3.org/2000/svg">
<path fill-rule="evenodd" clip-rule="evenodd" d="M69.4872 75.9145H74.2456C74.3555 75.7475 74.4394 75.5776 74.558 75.399L75.8076 73.34C75.9088 73.1672 76.0159 73.012 76.12 72.8275L76.4295 72.3091C76.5423 72.1334 76.6407 71.9694 76.7506 71.8024C77.4188 71.8024 81.9082 71.7438 82.1656 71.8434V75.9145H86.6781V64.7792C86.4149 64.6767 83.4065 64.7382 82.6573 64.7382C82.4549 64.7382 82.1656 64.6737 82.1656 64.8641V68.7682H78.6395C78.813 68.4372 80.4271 66.2611 80.7309 65.8189L82.371 63.4905L107.679 63.5315C108.214 63.5315 108.989 63.4934 109.394 63.6223C109.854 63.7687 110.056 64.3369 110.056 64.8202C110.056 65.5055 110.181 66.8117 109.779 67.2804C109.628 67.4561 109.122 67.6025 108.787 67.6025H105.26V65.1511H100.748V75.9115H105.26V71.5915H108.049C108.732 71.5915 109.171 71.6472 109.556 71.9752C109.889 72.2593 110.059 72.8041 110.059 73.4191V75.9115H114.531V72.0894C114.531 71.6179 114.358 71.2167 114.164 70.8828C113.849 70.3439 113.528 70.0598 112.949 69.8284C112.706 69.7288 112.211 69.556 111.908 69.556V69.515C112.154 69.515 112.932 69.1782 113.105 69.0669C113.377 68.8941 113.29 68.9966 113.6 68.7389C113.802 68.569 113.831 68.5544 114.022 68.2966C114.303 67.9218 114.459 67.6142 114.54 67.1193C114.569 66.9318 114.638 66.6214 114.653 66.4017C114.742 65.0691 114.774 63.0424 114.311 61.8855C114.181 61.5633 114.028 61.291 113.84 61.0362C113.666 60.8019 113.383 60.5529 113.143 60.3713C112.168 59.6245 109.828 59.5073 108.706 59.5073H80.5689L72.267 71.7878C72.0327 72.1451 71.8129 72.4585 71.5872 72.8011L70.193 74.8777C70.0657 75.0973 69.5421 75.7475 69.4959 75.9174L69.4872 75.9145Z" fill="#1D3753"/>
<path fill-rule="evenodd" clip-rule="evenodd" d="M59.603 63.2824H58.66C58.6658 62.969 58.8394 62.638 58.8654 62.3276H59.8084C59.8026 62.641 59.6291 62.9719 59.603 63.2824ZM55.3769 60.2071H56.6497C56.6352 60.3975 56.4645 60.828 56.4443 61.0799H55.131C55.1108 61.3406 54.8562 62.2339 54.8447 62.3686H53.9827C53.9827 62.1431 54.0637 61.9176 54.1128 61.7125C54.1504 61.5602 54.2575 61.2322 54.269 61.0799C52.788 61.0799 53.1611 60.9862 53.0107 61.5105L52.4496 63.4845C52.4206 63.6895 52.5537 63.6163 53.1207 63.6163C53.6963 63.6163 54.269 63.6163 54.8447 63.6163L54.5149 64.8639C54.3963 65.3179 54.2372 65.1949 56.2794 65.1949C56.2765 65.3765 55.8831 66.7794 55.8282 67.0225H57.7142C57.7836 66.7149 57.8617 66.4484 57.9282 66.1175C57.9658 65.9417 58.096 65.3355 58.1654 65.192H59.9704C60.0369 65.0514 60.3754 63.7949 60.3812 63.6133H67.7227C67.8818 63.6133 68.5991 62.4623 68.7322 62.2661C68.819 62.1402 68.9694 61.8648 69.1169 61.8268C69.1169 62.4535 69.2413 62.9514 69.2413 63.5723C69.7417 63.6895 70.8091 63.6133 71.4166 63.6133L69.3744 64.6677C69.3657 64.9723 69.5306 66.2053 69.5306 66.5216C69.3541 66.507 69.3512 66.4484 69.1198 66.2727L67.9714 65.3999C67.2801 65.7719 66.5685 66.1116 65.8801 66.4806C65.9263 66.2785 66.9706 64.8434 67.1528 64.5681C66.9417 64.6179 66.7334 64.7819 66.5338 64.8551C66.1983 64.9782 61.518 64.8376 61.1651 64.902C60.9134 64.9459 60.9886 65.3296 60.8758 65.5668H59.1952C58.9377 66.6798 58.6282 67.7107 58.3737 68.7651C58.3187 68.9935 58.2753 69.2249 58.2146 69.4358L56.7191 75.2319C56.6641 75.4193 56.5687 75.7151 56.5687 75.9114H61.7783C61.9403 75.9114 61.9519 75.6068 62.0502 75.2729L62.6635 73.1085C62.8023 72.6165 62.9354 72.1889 63.0742 71.6968L63.4618 70.2178C64.5061 70.2178 69.0851 70.2793 69.9095 70.1416C70.5285 70.0391 71.029 69.8136 71.5149 69.5676C72.4145 69.1136 73.2592 68.3228 73.7741 67.453C74.3092 66.548 74.8241 65.2183 74.8241 64.0702C74.8241 62.9895 74.7576 62.2719 74.1501 61.3464L73.5166 60.6142C72.5389 59.8176 71.8823 59.5511 70.7137 59.2582C70.0021 59.0796 69.1314 58.9595 68.2607 58.9595H55.6691C55.6662 59.1498 55.5823 59.39 55.5389 59.5745C55.4955 59.7532 55.4 60.0109 55.3827 60.2071H55.3769Z" fill="#1D3753"/>
<path fill-rule="evenodd" clip-rule="evenodd" d="M124.736 63.5314C127.325 63.5314 129.616 64.5125 131.621 66.0296C132.098 66.3899 133.131 67.207 133.585 67.6551C133.669 67.74 133.683 67.7371 133.767 67.8045L136.026 69.8371C136.967 70.6864 138.352 71.5914 139.668 71.5914C139.668 71.2429 139.7 70.7157 139.738 70.417C139.801 69.9366 139.781 68.6011 139.862 68.0066C139.914 67.617 139.729 63.9912 139.581 63.2443C139.093 60.749 137.076 59.3578 134.623 59.3754C134.21 59.3783 133.808 59.3256 133.432 59.2963C133.099 59.267 131.87 59.2377 131.537 59.2817C131.297 59.3139 129.882 59.3256 129.434 59.393C128.413 59.5482 128.179 59.4545 127.106 59.9846C126.027 60.5176 125.066 61.7155 124.841 62.8841C124.803 63.0862 124.742 63.341 124.742 63.5314H124.736Z" fill="#1D3753"/>
<path fill-rule="evenodd" clip-rule="evenodd" d="M132.162 76.0373C132.902 76.0373 135.005 75.9143 135.766 75.7825C136.162 75.7152 136.466 75.6068 136.805 75.5072C137.617 75.2671 138.575 74.5144 138.983 73.7675C139.107 73.5361 139.356 73.132 139.379 72.8391C139.064 72.8332 138.531 72.6575 138.257 72.5638C137.389 72.2738 136.093 71.4157 135.367 70.8387L133.944 69.7463C133.663 69.5237 133.414 69.3245 133.142 69.1049L131.155 67.5438C130.484 67.0313 129.301 66.2347 128.555 65.8568C127.861 65.5083 127.872 65.4673 127.074 65.1979C126.284 64.9313 125.506 64.7351 124.658 64.7351C124.609 64.946 124.621 65.0192 124.618 65.2769C124.615 65.5142 124.574 65.564 124.574 65.8129C124.574 66.2259 124.537 66.5334 124.537 66.9786C124.537 67.3827 124.439 67.4794 124.525 68.1091C124.551 68.2936 124.537 68.4928 124.537 68.6802C124.537 68.9438 124.569 69.0551 124.577 69.263C124.687 71.3454 124.598 73.4717 126.293 74.7545C127.473 75.6478 128.459 75.803 129.906 75.9143C130.632 75.97 131.378 76.0373 132.165 76.0373H132.162Z" fill="#1D3753"/>
<path fill-rule="evenodd" clip-rule="evenodd" d="M143.073 59.5012H140.817V64.527C140.817 64.6237 140.846 64.653 140.941 64.653H143.524C144.027 64.653 144.377 64.612 144.878 64.612V71.5913H149.431V64.612C149.931 64.612 150.281 64.653 150.785 64.653H153.573C153.669 64.653 153.698 64.6237 153.698 64.527V59.4573C150.114 59.4573 146.66 59.4983 143.073 59.4983V59.5012Z" fill="#1D3753"/>
<path fill-rule="evenodd" clip-rule="evenodd" d="M91.4711 75.9143H95.9836V64.864C95.9836 64.7673 95.9547 64.738 95.8592 64.738H91.4711V75.9143Z" fill="#1D3753"/>
<path fill-rule="evenodd" clip-rule="evenodd" d="M117.56 75.9144H122.029V64.8201H117.56V75.9144Z" fill="#1D3753"/>
<path fill-rule="evenodd" clip-rule="evenodd" d="M117.56 63.5312H122.029V59.4192H117.56V63.5312Z" fill="#1D3753"/>
<path fill-rule="evenodd" clip-rule="evenodd" d="M144.878 72.88L144.875 75.6273C144.875 75.7825 144.843 75.9143 145.002 75.9143H149.309C149.405 75.9143 149.434 75.885 149.434 75.7883C149.434 75.2143 149.489 73.2549 149.393 72.839C148.74 72.839 145.167 72.7687 144.881 72.88H144.878Z" fill="#1D3753"/>
<path fill-rule="evenodd" clip-rule="evenodd" d="M53.4907 69.3067H52.1775C52.1225 69.5498 52.0589 69.7461 51.9952 69.995C51.9403 70.2147 51.8477 70.487 51.8477 70.7184H53.0771C53.0771 71.1109 52.8717 71.6498 52.7907 72.0071H54.185L54.5118 70.7184H55.7846L56.1115 69.3067H54.8387C54.8994 69.1749 54.9573 68.8586 55.0065 68.6888C55.0528 68.5335 55.1511 68.1938 55.1656 68.0181H53.7713L53.4849 69.3067H53.4907Z" fill="#1D3753"/>
<path fill-rule="evenodd" clip-rule="evenodd" d="M50.9049 65.8158H49.6322L49.2619 67.1864H50.5347C50.5289 67.4735 50.2714 68.2379 50.2483 68.5161H51.6425C51.6454 68.3785 51.926 67.2831 51.9694 67.1864L53.0831 67.1923C53.3868 67.1777 53.219 67.1396 53.4244 66.4162C53.4765 66.2346 53.5546 66.0032 53.5719 65.8158H52.2992C52.4004 65.3764 52.5277 64.9606 52.626 64.5271H51.1913C51.1884 64.697 50.9599 65.6986 50.9049 65.8158Z" fill="#1D3753"/>
<path fill-rule="evenodd" clip-rule="evenodd" d="M49.716 60.456H48.854C48.828 60.7841 48.6486 61.1004 48.6486 61.4518H49.4701C49.4181 61.5631 49.2676 62.1225 49.2648 62.2836H50.2482C50.2685 62.0288 50.3958 61.7037 50.4536 61.4518H51.2751L51.521 60.456H50.6995C50.7197 60.2012 50.847 59.8761 50.9049 59.6243H49.8809C49.878 59.7912 49.8317 59.8996 49.8028 60.0431C49.771 60.1925 49.7507 60.3184 49.7189 60.456H49.716Z" fill="#1D3753"/>
<path fill-rule="evenodd" clip-rule="evenodd" d="M43.7687 60.4561H43.1121C43.1005 60.6026 43.0542 60.6963 43.0137 60.8544C42.9732 61.0155 42.9414 61.1415 42.9067 61.2879H43.5228C43.5055 61.5134 43.4042 61.6716 43.3984 61.9117C44.3067 61.9117 44.1823 61.9762 44.2546 61.6569C44.2865 61.5163 44.3125 61.4197 44.3443 61.2908H44.9604C45.0183 61.1678 45.1629 60.6348 45.1658 60.459H44.5497C44.6047 60.3419 44.6799 59.9875 44.7146 59.8352C43.6993 59.8352 43.8873 59.7884 43.8323 60.1047C43.8063 60.2511 43.7745 60.3038 43.7687 60.4561Z" fill="#1D3753"/>
<path fill-rule="evenodd" clip-rule="evenodd" d="M45.4088 66.4808H44.7522C44.7464 66.759 44.6104 67.0021 44.5873 67.2716H45.2034C45.1832 67.5059 45.0848 67.7079 45.079 67.9364C45.4435 67.9364 45.5939 67.9657 45.9005 67.8954C45.9063 67.6552 46.0047 67.5 46.0249 67.2716H46.6816C46.7047 66.9933 46.8233 66.7385 46.8464 66.4808H46.2303C46.2419 66.3548 46.3518 65.9477 46.3952 65.8569H45.5737C45.5187 65.9741 45.4435 66.3285 45.4088 66.4808Z" fill="#1D3753"/>
<path fill-rule="evenodd" clip-rule="evenodd" d="M46.4358 62.3687H45.7791C45.756 62.6382 45.62 62.8812 45.6143 63.1566H46.1899C46.1899 63.4377 46.0858 63.5754 46.0655 63.8214H46.8436C46.9391 63.6193 46.9535 63.3586 47.049 63.1566H47.6651C47.7259 62.89 47.8127 62.6206 47.8705 62.3687H47.2544C47.2602 62.1285 47.3585 61.9733 47.3788 61.7449H46.5573C46.5197 61.9147 46.4502 62.19 46.4329 62.3687H46.4358Z" fill="#1D3753"/>
<path fill-rule="evenodd" clip-rule="evenodd" d="M155.91 61.5368C155.448 61.5368 155.048 61.1062 155.048 60.7899V60.582C155.048 60.172 155.422 59.7912 155.827 59.7912C156.107 59.7912 156.292 59.7941 156.535 60.0695C157.082 60.6904 156.584 61.5339 155.907 61.5339L155.91 61.5368ZM154.722 60.582C154.722 61.2849 155.231 61.8297 155.746 61.8297C156.142 61.8297 156.521 61.7828 156.778 61.4636C157.796 60.2042 156.075 58.8042 155.118 59.7824C155.011 59.8908 154.924 59.9523 154.855 60.0958C154.797 60.21 154.719 60.4297 154.719 60.582H154.722Z" fill="#1D3753"/>
<path fill-rule="evenodd" clip-rule="evenodd" d="M53.3664 60.2071H54.4743C54.5697 60.0256 54.5987 59.8352 54.6478 59.595C54.6883 59.3988 54.7549 59.1586 54.8011 58.9624H53.6933C53.673 59.2201 53.3866 59.9494 53.3664 60.2101V60.2071Z" fill="#1D3753"/>
<path fill-rule="evenodd" clip-rule="evenodd" d="M156.035 60.6229H155.748V60.374H156.035C156.13 60.374 156.159 60.4032 156.159 60.4999C156.159 60.5965 156.13 60.6258 156.035 60.6258V60.6229ZM155.459 61.2467H155.745V60.9568C156.22 60.9685 155.714 61.2467 156.442 61.2467C156.402 61.0915 156.315 61.03 156.237 60.9158C156.324 60.784 156.442 60.7518 156.442 60.5409C156.442 59.9756 156.014 60.084 155.459 60.084V61.2467Z" fill="#1D3753"/>
</svg>
