<svg width="250" height="167" viewBox="0 0 250 167" fill="none" xmlns="http://www.w3.org/2000/svg">
<path fill-rule="evenodd" clip-rule="evenodd" d="M93.7732 74.3143L97.3083 92.741C99.3536 92.7538 99.7787 93.3074 100.181 91.5751C100.719 89.2537 101.322 82.3843 102.16 81.0418L104.427 92.7185C107.641 92.8364 107.015 93.0693 107.528 89.9276C108.116 86.3283 110.132 76.5666 110.133 74.2437L107.28 74.2866L105.446 85.5989L103.311 74.2557L100.757 74.2407L98.8153 85.5095C97.8653 83.8086 97.8113 80.6399 97.45 78.4642C96.7902 74.4916 97.8481 74.0582 93.7739 74.3151L93.7732 74.3143Z" fill="#241F21"/>
<path fill-rule="evenodd" clip-rule="evenodd" d="M72.5118 81.2467L72.5441 87.0419C73.9266 88.0921 77.1243 89.9297 78.6305 90.6569L85.0004 87.1027L85.0057 79.8516C83.998 79.1778 79.465 76.2802 78.4229 76.4688C77.9603 76.5521 75.6413 78.0096 75.076 78.3304C73.428 79.2649 72.5126 79.1041 72.5126 81.2475L72.5118 81.2467Z" fill="#F54E25"/>
<path fill-rule="evenodd" clip-rule="evenodd" d="M128.782 79.3155C128.782 77.7371 128.776 76.8138 130.349 76.8063C131.852 76.7988 132.072 77.8092 132.072 79.3155C132.072 88.1194 133.104 90.621 129.228 90.0396C128.407 88.048 128.782 81.7728 128.782 79.3155ZM125.664 89.2936C126.269 93.6786 132.651 94.1038 134.473 91.1702C135.647 89.2785 135.643 80.416 135.172 77.7251C134.319 72.8472 128.156 73.2454 126.338 75.9461C125.266 77.5403 125.304 86.6912 125.663 89.2936H125.664Z" fill="#241F21"/>
<path fill-rule="evenodd" clip-rule="evenodd" d="M112.797 92.6613L115.984 92.7026L116.012 84.5703L119.313 84.5823L119.296 92.6117L122.435 92.7206L122.475 74.3691L119.326 74.2894L119.294 81.7621L115.996 81.7531L116.012 74.3969L112.854 74.2646L112.797 92.6613Z" fill="#241F21"/>
<path fill-rule="evenodd" clip-rule="evenodd" d="M166.97 84.6043L170.293 84.5674L170.346 92.7147L173.457 92.7516L173.359 74.2393L170.303 74.3339L170.305 81.763L167 81.7082L166.907 74.2513L163.784 74.2851L163.858 92.7343L166.984 92.7388L166.97 84.6043Z" fill="#241F21"/>
<path fill-rule="evenodd" clip-rule="evenodd" d="M142.192 89.615C141.43 87.9878 141.854 84.5155 141.853 82.5345C141.853 80.7555 141.062 76.7934 143.515 76.8055C145.957 76.8167 145.168 80.751 145.167 82.5345C145.166 83.5892 146.219 92.9874 142.192 89.615ZM138.818 89.615C139.717 93.7972 145.877 94.0707 147.701 90.9019C148.594 89.3498 148.657 79.7068 148.221 77.4876C147.368 73.1431 141.114 72.9876 139.32 76.079C138.373 77.71 138.331 87.3507 138.818 89.615Z" fill="#241F21"/>
<path fill-rule="evenodd" clip-rule="evenodd" d="M71.4084 79.3154C72.4333 78.447 78.0692 74.9506 79.1773 75.179C79.4967 75.2451 82.5999 77.1563 83.0707 77.4365C84.7404 78.4304 86.117 78.3643 86.117 80.6031C86.117 85.9287 86.8037 87.4282 84.9054 88.5017L78.6292 91.9695C77.2145 91.2663 72.2766 88.4311 71.3627 87.6468L71.4069 79.3154H71.4084ZM69.636 78.0901V88.8555L77.8802 93.6207C78.2086 93.8694 78.2529 93.9167 78.4703 94.121H78.9591L87.8819 88.7646L87.8219 78.1532C86.3157 77.239 84.9691 76.4854 83.3796 75.5238C82.0788 74.7365 80.1317 73.8756 79.0656 72.8772H78.3931C77.1807 73.9012 71.3042 77.3569 69.636 78.0894V78.0901Z" fill="url(#paint0_linear)"/>
<path fill-rule="evenodd" clip-rule="evenodd" d="M154.106 87.437L151.196 87.8938C151.402 95.9404 163.069 93.8324 160.546 86.3868C159.785 84.1398 158.057 83.1256 156.998 82.2151C155.784 81.1709 153.383 78.7548 154.924 77.208C156.564 75.5605 157.885 78.7053 157.974 78.8262L160.506 78.5325C160.886 75.4674 158.213 73.4322 154.795 74.1504C150.643 75.0234 150.118 80.6382 154.265 83.9903C155.124 84.6852 156.304 85.3914 157.144 86.5806C159.248 89.5601 155.22 92.8077 154.106 87.4363L154.106 87.437Z" fill="#241F21"/>
<path fill-rule="evenodd" clip-rule="evenodd" d="M177.354 87.5738C177.731 88.0501 178.113 88.3033 178.853 88.2898C179.705 88.3146 179.93 87.9337 180.175 87.6647C180.315 86.7016 180.543 76.0782 180.121 74.569C180.021 73.7441 179.7 73.5315 178.871 73.5029C177.744 73.4646 177.263 74.1881 177.24 74.1881L177.353 87.5731L177.354 87.5738Z" fill="#F54E25"/>
<path fill-rule="evenodd" clip-rule="evenodd" d="M177.275 92.823C179.427 93.7853 178.106 93.7568 180.292 92.9514L180.266 90.8066L178.823 90.0862L177.236 90.8765L177.274 92.823H177.275Z" fill="#F54E25"/>
<defs>
<linearGradient id="paint0_linear" x1="69.636" y1="83.4999" x2="87.8819" y2="83.4999" gradientUnits="userSpaceOnUse">
<stop stop-color="#C4C0C0"/>
<stop offset="0.247059" stop-color="#C4C0C0"/>
<stop offset="0.521569" stop-color="#FEFEFE"/>
<stop offset="1" stop-color="#C4C0C0"/>
</linearGradient>
</defs>
</svg>
